<?xml version="1.0" standalone="no"?>
<!DOCTYPE svg PUBLIC "-//W3C//DTD SVG 1.1//EN" "http://www.w3.org/Graphics/SVG/1.1/DTD/svg11.dtd" >
<svg xmlns="http://www.w3.org/2000/svg">
<metadata>
Created by FontForge 20120731 at Fri Jun  2 14:18:12 2017
 By admin
</metadata>
<defs>
<font id="yike-font" horiz-adv-x="1024" >
  <font-face 
    font-family="yike-font"
    font-weight="500"
    font-stretch="normal"
    units-per-em="1024"
    panose-1="2 0 6 3 0 0 0 0 0 0"
    ascent="896"
    descent="-128"
    x-height="792"
    bbox="-0.633802 -157 1276 896"
    underline-thickness="0"
    underline-position="0"
    unicode-range="U+0078-E74B"
  />
<missing-glyph 
 />
    <glyph glyph-name=".notdef" 
 />
    <glyph glyph-name=".notdef" 
 />
    <glyph glyph-name=".null" horiz-adv-x="0" 
 />
    <glyph glyph-name="nonmarkingreturn" horiz-adv-x="341" 
 />
    <glyph glyph-name="x" unicode="x" horiz-adv-x="1001" 
d="M281 543q-27 -1 -53 -1h-83q-18 0 -36.5 -6t-32.5 -18.5t-23 -32t-9 -45.5v-76h912v41q0 16 -0.5 30t-0.5 18q0 13 -5 29t-17 29.5t-31.5 22.5t-49.5 9h-133v-97h-438v97zM955 310v-52q0 -23 0.5 -52t0.5 -58t-10.5 -47.5t-26 -30t-33 -16t-31.5 -4.5q-14 -1 -29.5 -0.5
t-29.5 0.5h-32l-45 128h-439l-44 -128h-29h-34q-20 0 -45 1q-25 0 -41 9.5t-25.5 23t-13.5 29.5t-4 30v167h911zM163 247q-12 0 -21 -8.5t-9 -21.5t9 -21.5t21 -8.5q13 0 22 8.5t9 21.5t-9 21.5t-22 8.5zM316 123q-8 -26 -14 -48q-5 -19 -10.5 -37t-7.5 -25t-3 -15t1 -14.5
t9.5 -10.5t21.5 -4h37h67h81h80h64h36q23 0 34 12t2 38q-5 13 -9.5 30.5t-9.5 34.5q-5 19 -11 39h-368zM336 498v228q0 11 2.5 23t10 21.5t20.5 15.5t34 6h188q31 0 51.5 -14.5t20.5 -52.5v-227h-327z" />
    <glyph glyph-name="share" unicode="&#xe617;" 
d="M841 274q-44 0 -82 -19.5t-64 -53.5l-264 124q8 30 8 59t-8 59l264 124q26 -34 64 -53.5t82 -19.5q76 0 129.5 53.5t53.5 129t-53.5 129t-129.5 53.5t-129.5 -53.5t-53.5 -128.5q0 -20 6 -43l-264 -125q-31 44 -78.5 69t-102.5 25q-90 0 -154.5 -64t-64.5 -155t64.5 -155
t154.5 -64q55 0 102.5 25t78.5 69l264 -125q-6 -23 -6 -43q0 -75 53.5 -128.5t129.5 -53.5t129.5 53.5t53.5 129t-53.5 129t-129.5 53.5zM841.5 786q45.5 0 77.5 -32t32 -77.5t-32 -77.5t-77.5 -32t-78 32t-32.5 77.5t32.5 77.5t78 32zM219.5 238q-60.5 0 -103.5 43t-43 103
t43 103t103.5 43t103.5 -43t43 -103t-43 -103t-103.5 -43zM841.5 -18q-45.5 0 -78 32t-32.5 77.5t32.5 77.5t78 32t77.5 -32t32 -77.5t-32 -77.5t-77.5 -32z" />
    <glyph glyph-name="notice" unicode="&#xe60e;" horiz-adv-x="1307" 
d="M1160 316q12 0 20 8.5t8 19.5v357q0 33 -19 60v1t-1 1q0 1 -1.5 1.5t-1.5 1.5q-32 40 -82 40h-867q-43 0 -74 -30.5t-31 -74.5v-634q0 -44 31 -74.5t74 -30.5h867q44 0 74.5 30.5t30.5 74.5v87q0 11 -8 19t-19.5 8t-19.5 -8t-8 -19v-82q0 -23 -16 -39t-39 -16h-856
q-23 0 -39 16t-16 39v624v8l482 -393v0q6 -4 14 -5h4.5h4.5q8 1 14 5v0l447 389v-2.5v-1.5v-352q0 -11 8 -19.5t19 -8.5v0zM222 751h856q10 0 20 -4l-430 -377l-462 378q9 3 16 3v0zM222 751z" />
    <glyph glyph-name="thumb-up" unicode="&#xe603;" 
d="M881 541q-10 2 -24.5 4t-41 3t-45 1.5t-61.5 1.5t-66 2q7 32 7 92q0 74 -44 131.5t-94 57.5q-34 0 -58.5 -24.5t-25.5 -58.5q0 -25 -4.5 -49.5t-16 -54t-35 -56t-56.5 -44.5q-18 -9 -30 -14l2 -1q-26 22 -56 22h-84q-35 0 -59.5 -24.5t-24.5 -59.5v-449q0 -34 24.5 -59
t59.5 -25h84q24 0 44 13.5t31 35.5q0 -1 1 -1t3 -0.5t4 -0.5l1 -1q34 -8 114 -26q85 -20 167 -20h153q73 0 101 54q12 21 26 53t35 91.5t35 141.5t14 167q0 30 -20.5 58t-59.5 39zM260 21q0 -11 -8 -19.5t-20 -8.5h-84q-12 0 -20 8.5t-8 19.5v449q0 11 8 19.5t20 8.5h84
q12 0 20 -8.5t8 -19.5v-449zM904 427q-2 -45 -6.5 -88t-11 -77.5t-14.5 -66t-16 -55.5t-16 -44.5t-15 -34.5l-12 -24t-8.5 -14.5l-3.5 -4.5q-13 -25 -51 -25h-153q-75 0 -155 18q-111 26 -130 31l4 412v31q46 19 80 50t52 67.5t27 73t9 74.5q0 11 8 19.5t20 8.5
q25 0 53.5 -41t28.5 -92q0 -49 -4 -71.5t-22 -75.5q133 0 198.5 -1.5t76.5 -3t28 -6.5q34 -9 34 -43q0 -1 -1 -17z" />
    <glyph glyph-name="list" unicode="&#xe646;" 
d="M164 161q-23 0 -40.5 -16.5t-17.5 -40t17.5 -41t40.5 -17.5t40 17.5t17 41t-16.5 40t-40.5 16.5v0zM164 441q-23 0 -40.5 -17t-17.5 -40t17.5 -40t41 -17t40 17t16.5 40t-16.5 40t-40.5 17v0zM372 611h492q23 0 38.5 15.5t15.5 37t-16 37.5t-38 16h-492q-22 0 -37.5 -16
t-15.5 -37.5t15.5 -37t37.5 -15.5v0zM164 722q-23 0 -40.5 -17.5t-17.5 -41t17.5 -40t41 -16.5t40 16.5t16.5 40t-17 41t-40 17.5v0zM864 438h-492q-22 0 -37.5 -16t-15.5 -38t15.5 -38t37.5 -16h492q22 0 38 16t16 38t-16 38t-38 16v0zM864 158h-492q-22 0 -37.5 -15.5
t-15.5 -37.5t15.5 -38t37.5 -16h492q22 0 38 16t16 38t-16 37.5t-38 15.5v0zM864 158z" />
    <glyph glyph-name="all" unicode="&#xe696;" 
d="M461 410h25v25v218q0 101 -71 172t-172 71t-172 -71t-71 -172t71 -172t172 -71h218zM51 652.5q0 79.5 56.5 136t136 56.5t135.5 -56.5t56 -135.5v-218l26 26h-218q-79 0 -135.5 56t-56.5 135.5zM461 307l-26 26v-218q0 -79 -56 -135.5t-135.5 -56.5t-136 56.5t-56.5 136
t56.5 135.5t135.5 56h218zM0 115q0 -101 71 -172t172 -71t172 71t71 172v218v25h-25h-218q-101 0 -172 -71t-71 -172zM563 461l26 -26v218q0 79 56 135.5t135.5 56.5t136 -56.5t56.5 -136t-56.5 -135.5t-135.5 -56h-218zM1024 653q0 101 -71 172t-172 71t-172 -71t-71 -172
v-218v-25h25h218q101 0 172 71t71 172zM1024 115q0 101 -71 172t-172 71h-218h-25v-25v-218q0 -101 71 -172t172 -71q57 0 107 25q10 5 13.5 15t-1.5 19.5t-15 13t-19 -1.5q-40 -20 -85 -20q-80 0 -136 56.5t-56 135.5v218l-26 -26h218q79 0 135.5 -56t56.5 -136
q0 -28 -8 -54q-3 -10 2 -19.5t15 -12.5t19.5 2t12.5 15q10 34 10 69z" />
    <glyph glyph-name="menu" unicode="&#xe6b5;" 
d="M147 846h200q31 0 53 -22t22 -53v-224q0 -32 -22 -54t-53 -22h-200q-32 0 -54 22t-22 54v224q0 31 22 53t54 22zM21 547q0 -52 37 -89t89 -37h200q52 0 89 37t37 89v224q0 52 -37 88.5t-89 36.5h-200q-52 0 -89 -36.5t-37 -88.5v-224zM147 297h200q31 0 53 -22t22 -54
v-224q0 -31 -22 -53t-53 -22h-200q-32 0 -54 22t-22 53v224q0 32 22 54t54 22zM21 -3q0 -52 37 -88.5t89 -36.5h200q52 0 89 36.5t37 88.5v224q0 52 -37 89t-89 37h-200q-52 0 -89 -37t-37 -89v-224zM999 746q10 0 17.5 7.5t7.5 17.5t-7.5 17.5t-17.5 7.5h-426
q-11 0 -18 -7.5t-7 -17.5t7 -17.5t18 -7.5h426zM999 621q10 0 17.5 7.5t7.5 18t-7.5 17.5t-17.5 7h-426q-11 0 -18 -7t-7 -17.5t7 -18t18 -7.5h426zM999 496q10 0 17.5 7.5t7.5 18t-7.5 17.5t-17.5 7h-426q-11 0 -18 -7t-7 -17.5t7 -18t18 -7.5h426zM999 222q10 0 17.5 7
t7.5 17.5t-7.5 18t-17.5 7.5h-426q-11 0 -18 -7.5t-7 -18t7 -17.5t18 -7h426zM999 97q10 0 17.5 7t7.5 17.5t-7.5 18t-17.5 7.5h-426q-11 0 -18 -7.5t-7 -18t7 -17.5t18 -7h426zM999 -28q10 0 17.5 7.5t7.5 17.5t-7.5 17.5t-17.5 7.5h-426q-11 0 -18 -7.5t-7 -17.5t7 -17.5
t18 -7.5h426z" />
    <glyph glyph-name="home" unicode="&#xe64d;" 
d="M497 752l-423 -351q-3 -2 -5.5 -6t-6.5 -15t2 -19q11 -22 41 -22h75v-214q0 -5 1 -12.5t11 -27.5t27 -35t54 -28t86 -14h238q4 0 9.5 1t20 8t25.5 18t20 34t8 54v151v9t-5 21t-14 27.5t-31 25t-52 17.5h-114q-3 0 -9 -0.5t-22 -6t-28 -15t-23 -30t-13 -48.5v-82
q-1 -2 -0.5 -4.5t1.5 -10t4 -13.5t10 -11t16 -6q7 -1 14 1t15 11t9 24l-1 86q1 1 1 3.5t2 9t5 11.5t9 8.5t14 3.5l106 -1q4 0 9.5 -1t16 -8.5t11.5 -18.5v-27.5v-42.5v-44.5v-36.5v-15v-3.5t-1.5 -8.5t-3.5 -11t-7.5 -8t-12.5 -2q-4 0 -58 -1.5t-109 -1t-83 4.5
q-5 0 -16.5 2t-27.5 6.5t-28 16t-14 27.5v243q0 4 -1 9t-9 14t-22 11h-27l330 274l308 -262q0 -1 -4 0t-10 -0.5t-12 -4t-11 -9.5t-6 -17q1 -36 1 -251v-3t-0.5 -7.5l-1 -11t-2 -11.5t-4 -10.5t-6 -7t-8.5 -1.5q-10 -2 -15.5 -3.5t-13 -10t-8.5 -22.5q6 -39 52 -32
q11 2 18 5t20.5 12t22.5 27.5t12 45.5q2 62 2 67v25v45.5v48.5v40t0 16h64q3 0 8.5 0.5t15.5 8t14 20.5q0 21 -15 34q-6 6 -102.5 88.5t-190 162.5l-93.5 80q-2 2 -5.5 5t-12 8t-15.5 5q-15 0 -26 -10z" />
    <glyph glyph-name="replay" unicode="&#xe61b;" 
d="M150 449h162q16 0 27 11t11 26.5t-11 26.5t-27 11h-65q45 64 114.5 101t150.5 37q88 0 163 -43.5t118.5 -118.5t43.5 -163t-43.5 -163t-118.5 -118.5t-163 -43.5t-163 43.5t-118.5 118.5t-43.5 163q0 16 -11 26.5t-26.5 10.5t-26.5 -10.5t-11 -26.5q0 -109 53.5 -201
t145.5 -145.5t201 -53.5t201 53.5t145.5 145.5t53.5 201t-53.5 201t-145.5 145.5t-201 53.5q-99 0 -184 -45t-141 -122v67q0 15 -11 26t-26.5 11t-26.5 -11t-11 -26v-150q0 -16 11 -27t27 -11z" />
    <glyph glyph-name="over" unicode="&#xe639;" 
d="M512 886q102 0 195 -40t160 -107t107 -160t40 -195t-40 -195t-107 -160t-160 -107t-195 -40t-195 40t-160 107t-107 160t-40 195t40 195t107 160t160 107t195 40zM668 565.5q0 -12.5 9 -20.5v0q68 -69 68 -165.5t-68 -164.5t-165 -68t-165 68t-68 164.5t68 165.5v0
q9 8 9 20.5t-9 21.5t-21 9t-21 -9q-86 -86 -86 -207.5t86 -207t207 -85.5t207 85.5t86 207t-86 207.5q-9 9 -21 9t-21 -9t-9 -21.5zM491 672q-9 -8 -9 -21v-271q0 -13 9 -21v0q9 -9 21 -9t21 9v0q9 8 9 21v271q0 13 -9 21.5t-21 8.5t-21 -9v0z" />
    <glyph glyph-name="click" unicode="&#xe679;" 
d="M810 406h-2q-24 0 -45 -13q-9 26 -30.5 42.5t-50.5 16.5q-25 0 -47 -13q-9 26 -30.5 42.5t-50.5 16.5q-22 0 -41 -10v89q0 36 -24.5 61.5t-61.5 25.5q-36 0 -62 -25.5t-26 -61.5v-341l-54 54q-26 25 -64 24t-61 -24q-15 -16 -24 -37.5t-5.5 -47.5t23.5 -46l247 -245
q7 -7 16 -13q37 -29 82.5 -43.5t123.5 -14.5q52 0 93 8.5t69.5 22t48.5 36t31.5 45.5t18.5 56.5t8.5 62.5t1.5 69v175q0 37 -24 62.5t-60 25.5v0zM848 143q0 -39 -0.5 -59t-5 -52t-12.5 -48.5t-24.5 -38t-40 -31.5t-59.5 -17.5t-84 -7.5q-70 0 -116 15.5t-79 48.5l-234 232
q-14 17 -13 34t15 30q12 13 32 13.5t32 -11.5l76 -76l50 -50v443q0 17 12.5 29t29.5 12t28 -12t11 -29v-282h1q-1 -2 -1 -5q0 -9 7 -16t16.5 -7t16.5 7t7 16q0 3 -1 5h1v115q0 18 11 30t29 12h4t10 -2.5t12.5 -6.5t9.5 -12.5t4 -20.5v-152h1q-1 -2 -1 -4q0 -10 7 -17
t16.5 -7t16.5 7t7 17q0 2 -1 4h1v106q0 18 11 30t28 12q2 0 5 -0.5t10 -3t12.5 -6.5t10 -12.5t4.5 -19.5v-134h1q-1 -2 -1 -4q0 -10 7 -16.5t16.5 -6.5t16 6.5t6.5 16.5v4v0v92q0 17 11.5 29t29.5 12h4t10 -2t12 -6t9.5 -12.5t4.5 -20.5v-170v0zM304 446v78q-11 26 -11 54
q0 55 39 94t94 39t94 -39t39 -94q0 -15 -3 -30q25 -1 43 -18q6 24 6 48q0 74 -52.5 126.5t-126.5 52.5t-126.5 -52.5t-52.5 -126.5q0 -79 57 -132v0z" />
    <glyph glyph-name="check" unicode="&#xe609;" horiz-adv-x="1025" 
d="M461 110q-20 0 -34 15l-198 197q-14 14 -14 34t14 34t34 14t34 -14l164 -164l418 419q14 14 34 14t34 -14.5t14 -34t-14 -33.5l-452 -452q-14 -15 -34 -15v0zM512 -128q-104 0 -199 40.5t-163.5 109t-109 163.5t-40.5 199t40.5 199t109 163.5t163.5 109t199 40.5
q154 0 282 -85q13 -8 16 -23t-5.5 -27.5t-23.5 -15.5t-27 5q-110 73 -242 73q-89 0 -170.5 -35t-140 -93.5t-93.5 -140t-35 -170.5t35 -170.5t93.5 -140t140 -93.5t170.5 -35t170.5 35t140 93.5t93.5 140t35 170.5q0 23 -2 46q-2 15 7.5 26.5t24.5 13t27 -8t13 -24.5
q3 -26 3 -53q0 -104 -40.5 -199t-109 -163.5t-163.5 -109t-199 -40.5v0zM512 -128z" />
    <glyph glyph-name="enter" unicode="&#xe61d;" 
d="M596 395.5q0 -19.5 -15 -33.5l-148 -133q-13 -11 -30 -11q-18 0 -31 13t-13 31q0 20 14 33l63 56h-200q-18 0 -31 13t-13 31.5t13 31.5t31 13h200l-63 55q-14 14 -14 33t13 32t31 13q17 0 30 -12l148 -133q15 -13 15 -32.5zM618 89h125v590h-125q-18 0 -31 13t-13 31.5
t13 31.5t31 13h170q18 0 31 -13t13 -31v-680q0 -18 -13 -31t-31 -13h-170q-18 0 -31 13t-13 31.5t13 31.5t31 13z" />
    <glyph glyph-name="user" unicode="&#xe693;" 
d="M751 577q-4 -131 -80 -215q-3 -4 -37 -33q-2 -2 -8 -7.5t-9 -8.5q-16 -15 -16.5 -38t14.5 -39q9 -9 21 -13q178 -50 197 -57q55 -18 89 -61t36 -104v-31q0 -13 -8.5 -22t-20.5 -9q-13 0 -21.5 8.5t-8.5 22.5q-2 44 -3 48q-12 66 -75 88q-20 7 -125 38q-11 4 -37 11
t-40 11q-65 20 -76 89q-11 63 38 106q5 5 14 12t12 10q55 46 75 124q8 32 8 77q0 36 -7 60q-17 60 -69 96.5t-114 32.5q-65 -5 -111 -47.5t-54 -106.5q-14 -111 42 -193q19 -28 55 -55q55 -42 50 -106q-6 -66 -62 -92q-7 -4 -53 -17q-6 -2 -63 -18.5t-86 -25.5
q-73 -22 -89 -87q-1 -3 -4 -46v-5.5t-1 -5.5q0 -12 -8 -20t-20 -9q-12 0 -21 7.5t-10 19.5q-3 63 15 101q29 64 95 93q14 6 30 11t36.5 10.5t30.5 8.5q6 2 117 34q16 4 26 20.5t8 34.5q-3 26 -23 40q-107 78 -124 212q-10 81 7 132q48 143 193 167q95 15 173.5 -40.5
t96.5 -150.5q0 -3 5 -62v0zM751 577z" />
    <glyph glyph-name="dot" unicode="&#xe61f;" 
d="M510 576q-79 0 -135.5 -56t-56.5 -136t56.5 -136t136 -56t136 56t56.5 136t-56.5 136t-136.5 56v0z" />
    <glyph glyph-name="follow" unicode="&#xe662;" 
d="M971 226h-164v164q0 4 -3 7t-7 3h-41q-4 0 -7 -3t-3 -7v-164h-164q-4 0 -7 -3t-3 -7v-41q0 -4 3 -7t7 -3h164v-164q0 -4 3 -7t7 -3h41q4 0 7 3t3 7v164h164q4 0 7.5 3t3.5 7v41q0 4 -3.5 7t-7.5 3zM332 732q92 0 158 -65l22 -21l22 21q66 65 158 65q94 0 161 -67t67 -161
q0 -27 -10 -58q-3 -9 -3 -14q0 -13 9 -22t21 -9q19 0 31 25q3 9 8.5 34.5t5.5 43.5q0 120 -84.5 204.5t-204.5 84.5q-102 0 -180 -63v0q-79 63 -181 63q-120 0 -204.5 -84.5t-84.5 -204.5q0 -58 36.5 -125t86 -122t116.5 -112t110.5 -89t85.5 -60l1 -1l16 -4q13 0 22 9t9 22
q0 17 -15 25v0q-43 28 -91 63.5t-106.5 86t-103.5 100t-76 105.5t-31 102q1 94 68 161t161 67z" />
    <glyph glyph-name="info" unicode="&#xe702;" 
d="M967 579q-37 88 -105.5 156.5t-157.5 106.5q-92 39 -192.5 39t-192.5 -39q-89 -38 -157 -106.5t-106 -156.5q-39 -92 -39 -193t39 -192q38 -89 106 -157.5t157 -106.5q92 -38 192.5 -38t192.5 38q89 38 157.5 106.5t105.5 157.5q39 91 39 192t-39 193zM511.5 -55
q-89.5 0 -171 35t-141 94t-94.5 140.5t-35 171.5t35 171.5t94.5 140.5t141 94t171 35t171.5 -35t141 -94t94 -140.5t35 -171.5t-35 -171.5t-94 -140.5t-141 -94t-171.5 -35zM466 573.5q0 -18.5 13.5 -32t32.5 -13.5t32 13.5t13 32t-13 32t-32 13.5t-32.5 -13.5t-13.5 -32z
M543 184q0 -13 -9 -22t-22 -9v0q-13 0 -22 9t-9 22v243q0 13 9 22t22 9v0q13 0 22 -9t9 -22v-243z" />
    <glyph glyph-name="money" unicode="&#xe62a;" 
d="M891 381q13 0 22 -9t9 -22v-81q0 -13 -9 -22t-22 -9h-186q-13 0 -22 9t-9 22v81q0 13 9 22t22 9h186zM891 420h-186q-29 0 -49.5 -20.5t-20.5 -49.5v-81q0 -29 20.5 -49.5t49.5 -20.5h186q29 0 49.5 20.5t20.5 49.5v81q0 29 -20.5 49.5t-49.5 20.5v0zM342 329l-88 93
q-5 6 -13 6.5t-14 -5t-6.5 -13.5t5.5 -14l62 -67h-201q-8 0 -14 -6t-6 -14t6 -13.5t14 -5.5h197l-66 -67q-6 -5 -6 -13.5t5.5 -14t13.5 -5.5t14 6l96 95q8 8 8 19t-7 19zM105 391v165q0 46 33 79t79 33h475v0h1h49q47 0 79.5 -33t32.5 -79v-146q0 -8 5.5 -14t13.5 -6t14 6
t6 14v146q0 62 -44 106.5t-107 44.5h-36l-48 124l-369 -123q-1 -1 -2 -1h-70q-63 0 -107 -44.5t-44 -106.5v-165q0 -8 6 -13.5t14 -5.5t13.5 5.5t5.5 13.5v0zM635 783l29 -76h-255zM888 223q-8 0 -14 -5.5t-6 -13.5v-116q0 -46 -32.5 -79t-78.5 -33h-526q-46 0 -78.5 33
t-32.5 79v142q0 8 -6 13.5t-14 5.5t-13.5 -5.5t-5.5 -13.5v-142q0 -63 44 -107t106 -44h526q62 0 106 44t44 107v116q0 8 -5.5 13.5t-13.5 5.5zM876 307.5q0 -6.5 4.5 -11.5t11.5 -5t12 5t5 11.5t-5 11.5t-12 5t-11.5 -5t-4.5 -11.5z" />
    <glyph glyph-name="lesson" unicode="&#xe607;" 
d="M313 744h503q10 0 17.5 7.5t7.5 17.5t-7.5 17.5t-17.5 7.5h-513q-50 0 -85 -35t-35 -85v-580q0 -50 35 -85t85 -35h418q50 0 85 35t35 85v520h-50v-510q0 -33 -23.5 -56.5t-56.5 -23.5h-398q-33 0 -56.5 23.5t-23.5 56.5v560q0 33 23.5 56.5t56.5 23.5zM816 588h-305
q-10 0 -17.5 7.5t-7.5 17.5t7.5 17.5t17.5 7.5h305q10 0 17.5 -7.5t7.5 -17.5t-7.5 -17.5t-17.5 -7.5zM486 363v250q0 10 7.5 17.5t17.5 7.5t17.5 -7.5t7.5 -17.5v-250q0 -10 -7.5 -17.5t-17.5 -7.5t-17.5 7.5t-7.5 17.5zM493 346l-71 71q-7 7 -7 17.5t7 17.5t17.5 7
t17.5 -7l71 -71q7 -7 7 -17.5t-7 -17.5t-17.5 -7t-17.5 7zM458 417l-71 -71q-7 -7 -17.5 -7t-17.5 7t-7 17.5t7 17.5l71 71q7 7 17.5 7t17.5 -7t7 -17.5t-7 -17.5zM345 363v250q0 10 7 17.5t17.5 7.5t18 -7.5t7.5 -17.5v-250q0 -10 -7.5 -17.5t-18 -7.5t-17.5 7.5t-7 17.5z
M289 641q-16 5 -26 19t-10 31t10 31t26 19v22q-25 -6 -41 -26t-16 -46t16 -46t41 -26v22zM313 638q-23 0 -42.5 12.5t-29.5 32.5h-55q9 -41 42 -68t75 -27h68v50h-58z" />
    <glyph glyph-name="star" unicode="&#xe602;" horiz-adv-x="1093" 
d="M1080 442q-34 -39 -87.5 -97.5t-90.5 -97.5l-36 -39q22 -161 35 -270q4 -41 -23 -58t-63 0q-157 74 -265 126q-14 -6 -60 -27.5t-108 -50.5t-100 -46t-64.5 0t-22.5 58q12 109 35 269v0q-139 145 -217 233q-22 24 -8.5 52t53.5 34q50 9 121 22t117.5 21.5t45.5 8.5
q95 163 155 263q9 17 18.5 28.5t15.5 16.5t12 6.5t8.5 1.5t4.5 -1q22 -6 47 -52q26 -45 64.5 -110.5t62.5 -109.5l25 -43q171 -32 281 -52q39 -6 52.5 -34t-8.5 -52z" />
    <glyph glyph-name="people" unicode="&#xe72b;" 
d="M504 336q56 30 90 85t34 120q0 96 -68 164.5t-164.5 68.5t-164.5 -68.5t-68 -164.5q0 -65 34 -120t90 -85q-98 -34 -160 -119.5t-62 -192.5q0 -12 9 -21t21 -9t21 9t9 21q0 112 79.5 191.5t191.5 79.5t191 -79.5t79 -191.5q0 -12 9 -21t21 -9t21 9t9 21q0 107 -62 192.5
t-160 119.5zM223 541.5q0 71.5 50.5 122t122 50.5t122 -50.5t50.5 -122t-50.5 -122.5t-122 -51t-122 51t-50.5 122.5zM752 344q50 31 79.5 83.5t29.5 113.5q0 96 -68 164t-165 68q-12 0 -20.5 -8.5t-8.5 -21t8.5 -21t20.5 -8.5q72 0 122.5 -51t50.5 -122.5t-50.5 -122
t-122.5 -50.5q-12 0 -20.5 -9t-8.5 -21t8.5 -21t20.5 -9q112 0 191.5 -79.5t79.5 -191.5q0 -12 9 -20.5t21 -8.5t21 8.5t9 20.5q0 103 -57.5 186.5t-149.5 120.5z" />
    <glyph glyph-name="buy" unicode="&#xe670;" 
d="M818 829h-612q-35 0 -59 -24.5t-24 -58.5v-724q0 -34 24 -58.5t59 -24.5h612q35 0 59 24.5t24 58.5v724q0 34 -24 58.5t-59 24.5zM846 22q0 -11 -8 -19t-20 -8h-612q-12 0 -20 8t-8 19v84h668v-84zM846 161h-668v585q0 11 8 19t20 8h612q12 0 20 -8t8 -19v-585zM743 661
h-1q-11 0 -19 -8.5t-8 -19.5q1 -8 -0.5 -25.5t-14.5 -55t-38 -62.5q-51 -53 -145 -53q-42 0 -76.5 11.5t-56 27.5t-38 39t-24.5 42t-13 40t-6 30t-1 14q0 12 -8.5 19.5t-20.5 7.5q-11 0 -19 -8.5t-7 -20.5q0 -5 1 -15t7 -36.5t16 -51t31 -54t48 -50.5t70.5 -35.5t96.5 -14.5
q118 0 185 69q20 21 34.5 47.5t21 47.5t10 43.5t3.5 31v13.5q0 12 -8.5 19.5t-19.5 7.5z" />
    <glyph glyph-name="xiala" unicode="&#xe66c;" 
d="M889.5 351q-7.5 10 -20 12t-21.5 -6l-336 -251l-335 251q-10 8 -22.5 6t-20 -12t-5.5 -22t12 -20l353 -265q8 -6 18 -6t18 6l354 265q9 8 11 20t-5.5 22zM140 676l354 -265q8 -6 18 -6t18 6l353 265q10 7 12 19.5t-5.5 22.5t-20 11.5t-22.5 -5.5l-335 -252l-336 252
q-9 7 -21.5 5.5t-20 -11.5t-5.5 -22.5t11 -19.5z" />
    <glyph glyph-name="voice" unicode="&#xe74b;" 
d="M640 845l-86 -81q40 -38 70 -80q30 -43 52 -91q44 -100 44 -209t-44 -209q-21 -47 -52 -91q-30 -42 -70 -80l86 -81q95 90 148 209t53 252t-53 252t-148 209zM458 672l-86 -81q43 -41 66 -93q24 -55 24 -114q0 -60 -24 -114q-23 -52 -66 -93l86 -81q59 56 92 130.5
t33 157.5t-33 157.5t-92 130.5zM154 384l121 -115q51 48 51 115t-51 115z" />
    <glyph glyph-name="comment" unicode="&#xe601;" horiz-adv-x="1051" 
d="M826 -128v0q-14 0 -24 10l-226 226l-12 5l-12 5h-436q-48 0 -82 34t-34 82v546q0 48 34 82t82 34h819q48 0 82 -34t34 -82v-546q0 -48 -34 -82t-82 -34h-109q-14 0 -24 10t-10 24t10 24t24 10h109q20 0 34 14t14 34v546q0 20 -14 34t-34 14h-819q-20 0 -34 -14t-14 -34
v-546q0 -20 14 -34t34 -14h464q14 0 24 -10l246 -246q10 -10 10 -24t-10 -24t-24 -10v0zM771.5 445q-25.5 0 -43.5 18t-18 43.5t18 43.5t43.5 18t43.5 -18t18 -43.5t-18 -43.5t-43.5 -18zM525.5 445q-25.5 0 -43.5 18t-18 43.5t18 43.5t43.5 18t43.5 -18t18 -43.5t-18 -43.5
t-43.5 -18zM280 445q-26 0 -44 18t-18 43.5t18 43.5t43.5 18t43.5 -18t18 -43.5t-18 -43.5t-43 -18v0z" />
    <glyph glyph-name="off" unicode="&#xe746;" 
d="M512 450q12 0 20 8t8 19v223q0 11 -8.5 19t-19.5 8t-19.5 -8t-8.5 -19v-223q0 -11 8 -19t20 -8zM822 437q-9 38 -27 71q-17 33 -43 62q-25 30 -57 52q-26 -1 -37.5 -13.5t-11 -25.5t7.5 -25q49 -35 78 -89t29 -117q0 -103 -73 -176t-176 -73t-176 73t-73 177
q0 60 27 112.5t74 87.5q3 11 4.5 25t-10.5 26.5t-36 12.5q-30 -22 -54.5 -51t-41 -61.5t-25.5 -69.5q-9 -36 -9 -74q0 -67 25 -125t69 -101q44 -44 102 -69t124 -25t124 25q59 25 102 68.5t68.5 101.5t25.5 125q0 39 -10 76z" />
    <glyph glyph-name="mic" unicode="&#xe604;" 
d="M512 834q-186 0 -318 -132t-132 -318t132 -318t318 -132t318 132t132 318t-132 318t-318 132zM512 -16q-166 0 -283 117t-117 283t117 283t283 117t283 -117t117 -283t-117 -283t-283 -117zM511.5 722q-62.5 0 -106 -44t-43.5 -106v-200q0 -62 43.5 -106t106 -44
t106.5 44t44 106v200q0 62 -44 106t-106.5 44zM612 372q0 -41 -29.5 -70.5t-71 -29.5t-70.5 29.5t-29 70.5v200q0 41 29 70.5t70.5 29.5t71 -29.5t29.5 -70.5v-200zM742 337q0 10 -7.5 17.5t-18 7.5t-18 -7.5t-7.5 -17.5v0q-12 -63 -62 -105t-115.5 -42t-115 42t-61.5 105
h-1q1 1 1 2q0 11 -7.5 18t-18 7t-18 -7t-7.5 -18v-2v0q12 -84 77 -140.5t151 -56.5q84 0 147.5 53.5t78.5 134.5q1 4 2 9zM512 34q-10 0 -17.5 7.5t-7.5 17.5v100q0 11 7.5 18t17.5 7t17.5 -7t7.5 -18v-100q0 -10 -7.5 -17.5t-17.5 -7.5z" />
    <glyph glyph-name="picture" unicode="&#xe606;" 
d="M512 834q-186 0 -318 -132t-132 -318t132 -318t318 -132t318 132t132 318t-132 318t-318 132zM512 -16q-166 0 -283 117t-117 283t117 283t283 117t283 -117t117 -283t-117 -283t-283 -117zM359 640q-53 0 -90.5 -37.5t-37.5 -90.5t37.5 -90.5t90.5 -37.5t90.5 37.5
t37.5 90.5t-37.5 90.5t-90.5 37.5zM359 434q-32 0 -55 23t-23 55.5t23 55t55 22.5t55 -22.5t23 -55t-23 -55.5t-55 -23zM512 784q77 0 148 -28.5t127 -81.5t88 -122t36 -145q0 -9 -2 -34q-66 47 -159 47h-4q-48 0 -94 -13t-70 -26t-64 -38q-57 -36 -90 -49q-53 -21 -117 -21
q-85 0 -147 58q-31 29 -52 68q3 75 33 143q30 72 86 126q55 55 126 85q74 31 155 31zM512 834q-91 0 -174 -35t-143 -95t-96 -142.5t-37 -172.5q0 -1 2 -5q7 -13 14.5 -26.5t30 -40t48 -45.5t67 -34t87.5 -15q59 0 108.5 15.5t84.5 37t69 43t78 36.5t95 15h3q49 0 87 -14.5
t56 -32t31 -32t17 -14.5q6 0 10 17q3 9 7.5 57t3.5 58q-6 117 -67.5 214.5t-162.5 154t-219 56.5z" />
    <glyph glyph-name="earning" unicode="&#xe608;" 
d="M919 576v0q-6 16 -23 16q-11 0 -18 -7.5t-7 -17.5q0 -6 2 -11q39 -82 39 -172q0 -109 -53.5 -201t-145.5 -145.5t-201 -53.5t-201 53.5t-145.5 145.5t-53.5 201t53.5 201t145.5 145.5t201 53.5q88 0 168 -37q5 -3 11 -3q10 0 17.5 7.5t7.5 18.5q0 14 -13 21v0
q-90 43 -191 43q-92 0 -175 -35.5t-143.5 -96t-96 -143.5t-35.5 -175t35.5 -175t96 -143.5t143.5 -96t175 -35.5t175 35.5t143.5 96t96 143.5t35.5 175q0 101 -43 192zM512 565l-181 -181l181 -181l181 181zM512 274l-110 110l110 110l110 -110z" />
    <glyph glyph-name="play" unicode="&#xe60a;" 
d="M512 896q-139 0 -257 -68.5t-186.5 -186.5t-68.5 -257t68.5 -257t186.5 -186.5t257 -68.5q104 0 199 40.5t163.5 109t109 163.5t40.5 199t-40.5 199t-109 163.5t-163.5 109t-199 40.5zM512 -80q-192 0 -328 136t-136 328t136 328t328 136t328 -136t136 -328t-136 -328
t-328 -136zM690 423l-229 150q-26 15 -45 4t-19 -41v-300q0 -30 19 -41t45 4l229 150q27 15 27 37t-27 37z" />
    <glyph glyph-name="pause" unicode="&#xe60d;" 
d="M512 896q-139 0 -257 -68.5t-186.5 -186.5t-68.5 -257t68.5 -257t186.5 -186.5t257 -68.5q104 0 199 40.5t163.5 109t109 163.5t40.5 199t-40.5 199t-109 163.5t-163.5 109t-199 40.5zM512 -80q-192 0 -328 136t-136 328t136 328t328 136t328 -136t136 -328t-136 -328
t-328 -136zM379 551h69v-334h-69v334zM576 551h68v-334h-68v334z" />
    <glyph glyph-name="laba" unicode="&#xe61e;" 
d="M544 20q-10 0 -19 6l-239 174l38 51l188 -136v579l-230 -189q-10 -8 -22 -7l-132 5v-242l86 -5l-4 -64l-116 7q-13 1 -21.5 10.5t-8.5 21.5v305q0 13 10 23q11 10 23 9l154 -5l273 223q15 13 34 4q18 -8 18 -28v-710q0 -20 -17 -29q-7 -3 -15 -3v0zM802 102l-42 47
q128 115 125 239q-1 37 -14.5 75t-30 63.5t-37 49t-29.5 32t-13 11.5l40 50q7 -5 18 -15t35 -38t43 -58.5t35 -76t17 -91.5q4 -153 -147 -288zM719 178l-45 45q32 34 50 70t21.5 65.5t-2.5 60t-15.5 51.5t-23 41t-19.5 27t-11 12l45 45q24 -23 44 -54t34 -75t14 -89
t-22.5 -98t-69.5 -101z" />
    <glyph glyph-name="down" unicode="&#xe610;" horiz-adv-x="1065" 
d="M486 -128h-102q-32 0 -54.5 22.5t-22.5 54.5v870q0 32 22.5 54.5t54.5 22.5h102q32 0 54.5 -22.5t22.5 -54.5v-870q0 -32 -22.5 -54.5t-54.5 -22.5zM384 845q-11 0 -18.5 -7.5t-7.5 -18.5v-870q0 -11 7.5 -18.5t18.5 -7.5h102q11 0 18.5 7.5t7.5 18.5v870q0 11 -7.5 18.5
t-18.5 7.5h-102zM179 -128h-102q-32 0 -54.5 22.5t-22.5 54.5v819q0 32 22.5 54.5t54.5 22.5h102q32 0 54.5 -22.5t22.5 -54.5v-819q0 -32 -22.5 -54.5t-54.5 -22.5v0zM77 794q-11 0 -18.5 -7.5t-7.5 -18.5v-819q0 -11 7.5 -18.5t18.5 -7.5h102q11 0 18.5 7.5t7.5 18.5v819
q0 11 -7.5 18.5t-18.5 7.5h-102zM799 259l-131 489v6q0 20 18 25l99 27q4 1 7 1v0q20 0 25 -19l141 -529h53l-145 542q-7 25 -27.5 41t-46.5 16q-10 0 -20 -3l-99 -26q-25 -7 -41 -27.5t-16 -47.5q0 -10 3 -20l127 -475h53zM758 54h308v-51h-308v51z" />
    <glyph glyph-name="up" unicode="&#xe611;" horiz-adv-x="1065" 
d="M486 -128h-102q-32 0 -54.5 22.5t-22.5 54.5v870q0 32 22.5 54.5t54.5 22.5h102q32 0 54.5 -22.5t22.5 -54.5v-870q0 -32 -22.5 -54.5t-54.5 -22.5zM384 845q-11 0 -18.5 -7.5t-7.5 -18.5v-870q0 -11 7.5 -18.5t18.5 -7.5h102q11 0 18.5 7.5t7.5 18.5v870q0 11 -7.5 18.5
t-18.5 7.5h-102zM179 -128h-102q-32 0 -54.5 22.5t-22.5 54.5v819q0 32 22.5 54.5t54.5 22.5h102q32 0 54.5 -22.5t22.5 -54.5v-819q0 -32 -22.5 -54.5t-54.5 -22.5v0zM77 794q-11 0 -18.5 -7.5t-7.5 -18.5v-819q0 -11 7.5 -18.5t18.5 -7.5h102q11 0 18.5 7.5t7.5 18.5v819
q0 11 -7.5 18.5t-18.5 7.5h-102zM799 259l-131 489v6q0 20 18 25l99 27q4 1 7 1v0q20 0 25 -19l141 -529h53l-145 542q-7 25 -27.5 41t-46.5 16q-10 0 -20 -3l-99 -26q-25 -7 -41 -27.5t-16 -47.5q0 -10 3 -20l127 -475h53zM1066 54h-128v128h-52v-128h-128v-51h128v-128h52
v128h128v51z" />
    <glyph glyph-name="zongshouyi" unicode="&#xe612;" horiz-adv-x="1078" 
d="M780 85l-278 270v448h-45v-1q-93 -1 -178 -38.5t-146 -99.5t-97 -147.5t-36 -179.5t37 -180.5t99 -148.5t148.5 -99t180.5 -37h1q91 0 196 49.5t163 120.5l-45 43v0zM62 337q0 109 52.5 201t143.5 146t199 57v-410l285 -287q-55 -52 -126.5 -81t-150.5 -29
q-109 0 -202 54t-147 147t-54 202zM589 896q-31 0 -61 -5v-442v0v-55h498q4 30 5 60q0 90 -35 172t-94.5 141t-141 94t-171.5 35zM584 449v388h2h3q104 0 192 -51t139.5 -139.5t51.5 -192.5v-2.5v-2.5h-388zM1018 358h-443v-30l295 -300l42 -44q78 71 122.5 168t44.5 206
h-61v0zM913 73v1l-239 234h341q-15 -132 -102 -235z" />
    <glyph glyph-name="shuju" unicode="&#xe613;" horiz-adv-x="1085" 
d="M1061 -128q10 0 17 9t7 21.5t-7 21.5t-17 9h-1036q-10 0 -17 -9t-7 -21.5t7 -21.5t17 -9h1036zM218 497h-145q-30 0 -51.5 -21.5t-21.5 -51.5v-339q0 -30 21.5 -51t51.5 -21h145v0q30 0 51 21t21 51v339q0 30 -21 51.5t-51 21.5zM230 97v0q0 -10 -7 -17t-17 -7h-121v0
q-10 0 -17 7t-7 17v315v0q0 10 7 17t17 7h121v0q10 0 17 -7t7 -17v-315zM616 896h-146q-30 0 -51 -21.5t-21 -51.5v-738q0 -30 21 -51t51 -21h146q30 0 51 21t21 51v738q0 30 -21 51.5t-51 21.5zM628 97v0q0 -10 -7.5 -17t-17.5 -7h-121q-10 0 -17 7t-7 17v714v0q0 10 7 17
t17 7h121v0q10 0 17.5 -7t7.5 -17v-714zM1013 678h-145q-30 0 -51.5 -21t-21.5 -51v-521q0 -30 21.5 -51t51.5 -21h145q30 0 51.5 21t21.5 51v521q0 30 -21.5 51t-51.5 21zM1025 97v0q0 -10 -7 -17t-17 -7h-121q-10 0 -17 7t-7 17v496q0 10 7 17.5t17 7.5h121v0
q10 0 17 -7.5t7 -17.5v-496z" />
    <glyph glyph-name="zhengzaishouke" unicode="&#xe614;" horiz-adv-x="1275" 
d="M624 279q1 -12 7.5 -19t12.5 -8l6 -1q1 -18 9.5 -41t16.5 -36l8 -13q16 -19 33.5 -31t31.5 -16t25.5 -4.5t17.5 1l6 1.5q29 8 50.5 25t32.5 35t17.5 38t7.5 29t1 12q10 0 16.5 5.5t7.5 10.5l2 5q2 9 -1.5 16.5t-8.5 10.5l-5 3q11 35 8.5 64.5t-11.5 48.5l-9 19
q-12 21 -30 37t-34 23t-31 11t-24 4l-8 1q-26 -2 -48 -10t-35 -18.5t-23 -20.5t-14 -16l-4 -7q-17 -28 -21.5 -62t-0.5 -54l5 -20q-7 -5 -10.5 -11t-3.5 -9v-3v0zM1098 -50q-24 23 -54.5 43.5t-54 32.5t-49 21.5t-34 12.5t-13.5 4v0q-6 3 -14 3q-9 0 -17 -5
q-45 -20 -83.5 -17.5t-63.5 10.5t-25 9q-5 2 -10 2t-9 -1l-4 -1q-46 -9 -120 -50l-135 215q-6 7 -14.5 8.5t-13.5 -0.5l-6 -3q-7 -5 -10 -11.5t-2 -10.5l1 -4l4 -21l80 -291q-1 -11 4 -17t11 -7h5h620q7 0 11.5 4.5t4.5 8.5v4v40q0 7 -2.5 12.5t-4.5 6.5l-2 2v0zM1224 896
h-1173q-21 0 -36 -15t-15 -36v-748q0 -21 15 -36t36 -15h305l-20 75h-261v700h1125v-700h-246q76 -43 116 -75h154q21 0 36.5 15t15.5 36v748q0 21 -15.5 36t-36.5 15v0z" />
    <glyph glyph-name="yue" unicode="&#xe615;" horiz-adv-x="1095" 
d="M1087 335q-2 41 -20 60t-56 19h-3q-10 0 -17 4t-8.5 6t-9.5 14q-2 2 -3 4.5t-3 4.5l-2 2q-55 93 -93 128q-8 8 -14 11q-29 26 -32 38q-4 16 11 60q0 9 5 19q8 25 8 28q5 38 -5 46q-8 8 -25 8h-1q-12 0 -23 -5l-24 -16t-24.5 -16.5t-21 -14.5t-22.5 -16t-19 -15t-20 -18
q-19 -19 -38 -19h-8q-67 6 -96 6q-141 0 -237 -52q-108 -56 -177 -177q-42 25 -46 54q-4 25 22 55q3 4 5 8t3.5 12.5t2.5 9.5q0 3 1 7t1 6l3 11l-11 -2h-13q-25 0 -33 -8q-48 -35 -44 -93q4 -67 66 -106q19 -15 21 -25l3 -5l6 2q5 3 16 3h14q16 6 24 6h6l2 5q17 55 50 98.5
t78 67.5q112 60 240 60q48 0 95 -8q11 -3 27 -3q41 0 63 41q14 24 46 52q2 2 6 5.5t7.5 6.5t5.5 7l-2 -25q-6 -47 -11 -68q-8 -47 38 -62q91 -36 117 -139q12 -60 68 -60h19h1q11 0 21 -6q6 -5 6 -30q-4 -23 0 -43q3 -30 -6 -44q-7 -11 -35 -11h-11q-14 0 -30 -10.5
t-27 -24.5q-33 -33 -47 -52q-39 -45 -62 -65t-28 -40t6 -45q8 -19 2 -30q-5 -8 -29 -13q-18 -4 -28 -11q-4 -3 -10.5 -5.5t-8.5 -2.5q-13 0 -22 30q-8 29 -26 43t-50 14h-19q-19 -3 -57 -3q-29 0 -93 6q-4 0 -11.5 1t-9.5 1q-57 0 -68 -54q-7 -33 -28 -33q-5 0 -38 11
q-32 12 -35 25q-4 11 8 35q33 61 -27 109q-31 23 -57 66t-33 81v5h-6q-12 5 -16 9l-3 2h-21v-5q-6 -16 -9 -22l-2 -3v-2q20 -92 98 -161q20 -18 23.5 -33.5t-7.5 -39.5q-17 -39 -5 -63q12 -28 54 -44q6 -2 18 -6.5t18 -6.5h2q41 -14 55 -14q25 0 39.5 16t28.5 49
q6 14 12.5 18t17.5 4h11q78 -5 95 -5q30 0 46 2h11q14 0 22 -5t13 -22q21 -57 66 -57q19 0 43 8q8 3 26 10t26 9q37 17 48 40.5t-2 57.5q-3 8 -3.5 13.5t3 10.5t6 7.5t11.5 9.5l2 3q58 49 90 98q14 18 24.5 25.5t27.5 7.5h3q72 0 76 79q-8 19 -8 84v0zM804 313h8
q4 1 7.5 2.5t8 4.5t7 5t8 6.5t7.5 6.5q4 2 11.5 9.5t13.5 11.5l8 6l-8 5q-7 4 -16.5 11t-11.5 8q-27 22 -38 22h-3q-14 -2 -29 -17t-17 -29q-4 -23 8 -35q17 -17 36 -17v0zM232 635h5q26 0 33 13q10 15 3 36q-11 51 15 92.5t74 51.5q11 3 30 3q43 0 75 -26.5t43 -69.5
q6 -32 29 -32q9 0 25 5l3 3v5q4 52 -23 96.5t-78 67.5q-37 16 -74 16q-80 0 -133 -57q-41 -49 -49 -98q-8 -52 19 -101l3 -5v0z" />
    <glyph glyph-name="time" unicode="&#xe616;" 
d="M514 330q-23 0 -39 16.5t-16 39.5q0 9 2 15.5t9.5 14t10.5 10t17 13.5l235 161l-159 -214q-1 -3 -4 -8q-12 -19 -18 -27t-15.5 -14.5t-22.5 -6.5zM482 892h57v-262h-57v262zM1022 424h-57q2 -20 2 -40q0 -93 -36 -177t-97 -145t-145 -97t-177 -36t-177 36t-145 97
t-97 145t-36 177q0 92 35.5 176t96 145t144 97t175.5 37v57q-104 -1 -198 -42t-162 -109.5t-108 -162.5t-40 -198t40.5 -199t109 -163.5t163.5 -109t199 -40.5t199 40.5t163.5 109t109 163.5t40.5 199q0 20 -2 40z" />
  </font>
</defs>
</svg>
